<mxfile host="app.diagrams.net" agent="Mozilla/5.0 (Windows NT 10.0; Win64; x64) AppleWebKit/537.36 (KHTML, like Gecko) Chrome/134.0.0.0 Safari/537.36" version="26.1.0">
  <diagram name="PÃ¡gina-1" id="BLMn-iYnQMu9xDfuS9n5">
    <mxGraphModel dx="1750" dy="1028" grid="1" gridSize="10" guides="1" tooltips="1" connect="1" arrows="1" fold="1" page="1" pageScale="1" pageWidth="827" pageHeight="1169" math="0" shadow="0">
      <root>
        <mxCell id="0" />
        <mxCell id="1" parent="0" />
        <mxCell id="ljKNpswtJc7sHFVHCuHn-1" value="INICIO" style="strokeWidth=2;html=1;shape=mxgraph.flowchart.start_1;whiteSpace=wrap;fillColor=#d5e8d4;strokeColor=#82b366;" vertex="1" parent="1">
          <mxGeometry x="364" y="10" width="100" height="60" as="geometry" />
        </mxCell>
        <mxCell id="ljKNpswtJc7sHFVHCuHn-2" value="FIM" style="strokeWidth=2;html=1;shape=mxgraph.flowchart.start_1;whiteSpace=wrap;fillColor=#d5e8d4;strokeColor=#82b366;" vertex="1" parent="1">
          <mxGeometry x="364" y="910" width="100" height="60" as="geometry" />
        </mxCell>
        <mxCell id="ljKNpswtJc7sHFVHCuHn-3" value="NUM1" style="html=1;strokeWidth=2;shape=manualInput;whiteSpace=wrap;rounded=1;size=26;arcSize=11;fillColor=#dae8fc;strokeColor=#6c8ebf;" vertex="1" parent="1">
          <mxGeometry x="364" y="80" width="100" height="60" as="geometry" />
        </mxCell>
        <mxCell id="ljKNpswtJc7sHFVHCuHn-8" style="edgeStyle=orthogonalEdgeStyle;rounded=0;orthogonalLoop=1;jettySize=auto;html=1;exitX=0.5;exitY=1;exitDx=0;exitDy=0;entryX=0.5;entryY=0;entryDx=0;entryDy=0;" edge="1" parent="1" source="ljKNpswtJc7sHFVHCuHn-4" target="ljKNpswtJc7sHFVHCuHn-5">
          <mxGeometry relative="1" as="geometry" />
        </mxCell>
        <mxCell id="ljKNpswtJc7sHFVHCuHn-4" value="NUM2" style="html=1;strokeWidth=2;shape=manualInput;whiteSpace=wrap;rounded=1;size=26;arcSize=11;fillColor=#dae8fc;strokeColor=#6c8ebf;" vertex="1" parent="1">
          <mxGeometry x="364" y="160" width="100" height="60" as="geometry" />
        </mxCell>
        <mxCell id="ljKNpswtJc7sHFVHCuHn-5" value="NUM-TEMP = 0" style="rounded=1;whiteSpace=wrap;html=1;absoluteArcSize=1;arcSize=14;strokeWidth=2;fillColor=#f5f5f5;fontColor=#333333;strokeColor=#666666;" vertex="1" parent="1">
          <mxGeometry x="329" y="260" width="170" height="40" as="geometry" />
        </mxCell>
        <mxCell id="ljKNpswtJc7sHFVHCuHn-6" style="edgeStyle=orthogonalEdgeStyle;rounded=0;orthogonalLoop=1;jettySize=auto;html=1;exitX=0.5;exitY=1;exitDx=0;exitDy=0;exitPerimeter=0;entryX=0.5;entryY=0.167;entryDx=0;entryDy=0;entryPerimeter=0;" edge="1" parent="1" source="ljKNpswtJc7sHFVHCuHn-1" target="ljKNpswtJc7sHFVHCuHn-3">
          <mxGeometry relative="1" as="geometry" />
        </mxCell>
        <mxCell id="ljKNpswtJc7sHFVHCuHn-7" style="edgeStyle=orthogonalEdgeStyle;rounded=0;orthogonalLoop=1;jettySize=auto;html=1;exitX=0.5;exitY=1;exitDx=0;exitDy=0;entryX=0.5;entryY=0.167;entryDx=0;entryDy=0;entryPerimeter=0;" edge="1" parent="1" source="ljKNpswtJc7sHFVHCuHn-3" target="ljKNpswtJc7sHFVHCuHn-4">
          <mxGeometry relative="1" as="geometry" />
        </mxCell>
        <mxCell id="ljKNpswtJc7sHFVHCuHn-13" style="edgeStyle=orthogonalEdgeStyle;rounded=0;orthogonalLoop=1;jettySize=auto;html=1;exitX=0;exitY=0.5;exitDx=0;exitDy=0;exitPerimeter=0;entryX=0.5;entryY=0;entryDx=0;entryDy=0;" edge="1" parent="1" source="ljKNpswtJc7sHFVHCuHn-9" target="ljKNpswtJc7sHFVHCuHn-12">
          <mxGeometry relative="1" as="geometry" />
        </mxCell>
        <mxCell id="ljKNpswtJc7sHFVHCuHn-18" value="N" style="edgeLabel;html=1;align=center;verticalAlign=middle;resizable=0;points=[];" vertex="1" connectable="0" parent="ljKNpswtJc7sHFVHCuHn-13">
          <mxGeometry x="-0.3222" y="3" relative="1" as="geometry">
            <mxPoint as="offset" />
          </mxGeometry>
        </mxCell>
        <mxCell id="ljKNpswtJc7sHFVHCuHn-9" value="NUM1 FOR IGUAL NUM2" style="strokeWidth=2;html=1;shape=mxgraph.flowchart.decision;whiteSpace=wrap;fillColor=#ffe6cc;strokeColor=#d79b00;" vertex="1" parent="1">
          <mxGeometry x="351" y="320" width="126" height="120" as="geometry" />
        </mxCell>
        <mxCell id="ljKNpswtJc7sHFVHCuHn-10" style="edgeStyle=orthogonalEdgeStyle;rounded=0;orthogonalLoop=1;jettySize=auto;html=1;exitX=0.5;exitY=1;exitDx=0;exitDy=0;entryX=0.5;entryY=0;entryDx=0;entryDy=0;entryPerimeter=0;" edge="1" parent="1" source="ljKNpswtJc7sHFVHCuHn-5" target="ljKNpswtJc7sHFVHCuHn-9">
          <mxGeometry relative="1" as="geometry" />
        </mxCell>
        <mxCell id="ljKNpswtJc7sHFVHCuHn-16" style="edgeStyle=orthogonalEdgeStyle;rounded=0;orthogonalLoop=1;jettySize=auto;html=1;exitX=0.5;exitY=1;exitDx=0;exitDy=0;entryX=0.5;entryY=0;entryDx=0;entryDy=0;" edge="1" parent="1" source="ljKNpswtJc7sHFVHCuHn-12" target="ljKNpswtJc7sHFVHCuHn-15">
          <mxGeometry relative="1" as="geometry" />
        </mxCell>
        <mxCell id="ljKNpswtJc7sHFVHCuHn-12" value="NUM-TEMP = NUM2" style="rounded=1;whiteSpace=wrap;html=1;absoluteArcSize=1;arcSize=14;strokeWidth=2;fillColor=#f5f5f5;fontColor=#333333;strokeColor=#666666;" vertex="1" parent="1">
          <mxGeometry x="150" y="440" width="170" height="40" as="geometry" />
        </mxCell>
        <mxCell id="ljKNpswtJc7sHFVHCuHn-14" value="NUM1 = NUM-TEMP" style="rounded=1;whiteSpace=wrap;html=1;absoluteArcSize=1;arcSize=14;strokeWidth=2;fillColor=#f5f5f5;fontColor=#333333;strokeColor=#666666;" vertex="1" parent="1">
          <mxGeometry x="150" y="584.5" width="170" height="40" as="geometry" />
        </mxCell>
        <mxCell id="ljKNpswtJc7sHFVHCuHn-17" style="edgeStyle=orthogonalEdgeStyle;rounded=0;orthogonalLoop=1;jettySize=auto;html=1;exitX=0.5;exitY=1;exitDx=0;exitDy=0;" edge="1" parent="1" source="ljKNpswtJc7sHFVHCuHn-15">
          <mxGeometry relative="1" as="geometry">
            <mxPoint x="235" y="580" as="targetPoint" />
          </mxGeometry>
        </mxCell>
        <mxCell id="ljKNpswtJc7sHFVHCuHn-15" value="NUM2 = NUM1" style="rounded=1;whiteSpace=wrap;html=1;absoluteArcSize=1;arcSize=14;strokeWidth=2;fillColor=#f5f5f5;fontColor=#333333;strokeColor=#666666;" vertex="1" parent="1">
          <mxGeometry x="150" y="510" width="170" height="40" as="geometry" />
        </mxCell>
        <mxCell id="ljKNpswtJc7sHFVHCuHn-19" value="" style="strokeWidth=2;html=1;shape=mxgraph.flowchart.start_2;whiteSpace=wrap;fillColor=#f5f5f5;gradientColor=#b3b3b3;strokeColor=#666666;" vertex="1" parent="1">
          <mxGeometry x="391" y="700" width="46" height="50" as="geometry" />
        </mxCell>
        <mxCell id="ljKNpswtJc7sHFVHCuHn-20" style="edgeStyle=orthogonalEdgeStyle;rounded=0;orthogonalLoop=1;jettySize=auto;html=1;exitX=0.5;exitY=1;exitDx=0;exitDy=0;entryX=0;entryY=0.5;entryDx=0;entryDy=0;entryPerimeter=0;" edge="1" parent="1" source="ljKNpswtJc7sHFVHCuHn-14" target="ljKNpswtJc7sHFVHCuHn-19">
          <mxGeometry relative="1" as="geometry" />
        </mxCell>
        <mxCell id="ljKNpswtJc7sHFVHCuHn-21" value="S" style="edgeStyle=orthogonalEdgeStyle;rounded=0;orthogonalLoop=1;jettySize=auto;html=1;exitX=0.5;exitY=1;exitDx=0;exitDy=0;exitPerimeter=0;entryX=0.5;entryY=0;entryDx=0;entryDy=0;entryPerimeter=0;" edge="1" parent="1" source="ljKNpswtJc7sHFVHCuHn-9" target="ljKNpswtJc7sHFVHCuHn-19">
          <mxGeometry relative="1" as="geometry" />
        </mxCell>
        <mxCell id="ljKNpswtJc7sHFVHCuHn-23" value="NUM1, NUM2" style="strokeWidth=2;html=1;shape=mxgraph.flowchart.display;whiteSpace=wrap;fillColor=#e1d5e7;strokeColor=#9673a6;" vertex="1" parent="1">
          <mxGeometry x="364" y="810" width="100" height="60" as="geometry" />
        </mxCell>
        <mxCell id="ljKNpswtJc7sHFVHCuHn-24" style="edgeStyle=orthogonalEdgeStyle;rounded=0;orthogonalLoop=1;jettySize=auto;html=1;exitX=0.5;exitY=1;exitDx=0;exitDy=0;exitPerimeter=0;entryX=0.5;entryY=0;entryDx=0;entryDy=0;entryPerimeter=0;" edge="1" parent="1" source="ljKNpswtJc7sHFVHCuHn-19" target="ljKNpswtJc7sHFVHCuHn-23">
          <mxGeometry relative="1" as="geometry" />
        </mxCell>
        <mxCell id="ljKNpswtJc7sHFVHCuHn-25" style="edgeStyle=orthogonalEdgeStyle;rounded=0;orthogonalLoop=1;jettySize=auto;html=1;exitX=0.5;exitY=1;exitDx=0;exitDy=0;exitPerimeter=0;entryX=0.5;entryY=0;entryDx=0;entryDy=0;entryPerimeter=0;" edge="1" parent="1" source="ljKNpswtJc7sHFVHCuHn-23" target="ljKNpswtJc7sHFVHCuHn-2">
          <mxGeometry relative="1" as="geometry" />
        </mxCell>
      </root>
    </mxGraphModel>
  </diagram>
</mxfile>
